<svg xmlns="http://www.w3.org/2000/svg" width="180.004" height="180.005" viewBox="0 0 180.004 180.005">
  <path id="logo" d="M379.993,186A90,90,0,1,1,470,276,90.111,90.111,0,0,1,379.993,186Zm6.71,0A83.294,83.294,0,1,0,470,102.7,83.392,83.392,0,0,0,386.7,186Zm65.168,73.622-2.656-51.048s5.416-1.964,5.49-2c9.462-4.18,16.358-16.47,16.358-32.423,0-17.41-13.507-32.407-26.562-32.531h-.051c-13.056.123-26.555,15.121-26.555,32.531,0,15.952,6.885,28.249,16.364,32.423.977.48,5.445,1.948,5.445,1.948l-2.374,45.906A75.9,75.9,0,1,1,508.06,251.6l-2.036-39.128s.1-.04.209-.078a24.457,24.457,0,0,0,14.63-10.227c4.107-6.148-3.15-60.549-3.15-60.549h-3.629v51.054H509.4V141.621h-5.321v51.054H499.4V141.621h-5.126v51.048h-4.69V141.615h-4.731s-7.262,54.4-3.156,60.549a24.366,24.366,0,0,0,14.794,10.255l-2.351,45.491a74.407,74.407,0,0,1-42.272,1.71ZM436.537,202.2a6.783,6.783,0,0,1-1.462-.607c-.2-.113-.4-.236-.607-.376l-.345-.243a23.086,23.086,0,0,1-3.629-2.941c-4.145-4.045-5.293-8.145-6.783-12.387a19.162,19.162,0,0,1-.775-4.3,33.065,33.065,0,0,1,.105-4.062,39.944,39.944,0,0,1,1.463-7,22.015,22.015,0,0,1,2.137-4.826c.753-1.22,1.271-2.048,1.271-2.048a.908.908,0,0,1,1.193-.258.989.989,0,0,1,.55,1.107,21.662,21.662,0,0,0-.652,2.178,25.157,25.157,0,0,0-.815,4.522,46.16,46.16,0,0,0-.286,6.441,32.907,32.907,0,0,0,.191,3.47,15.671,15.671,0,0,0,.67,3.246c1.609,4.4,2.772,8.708,4.793,11.79.4.59.843,1.2,1.213,1.744a21.068,21.068,0,0,0,1.391,1.9,9.4,9.4,0,0,0,1.078,1.182.89.89,0,0,1,.293,1.057.887.887,0,0,1-1,.416Z" transform="translate(-379.993 -95.996)" fill="#3c3c3c"/>
</svg>
